<svg xmlns="http://www.w3.org/2000/svg" viewBox="0 0 256 256">
  <title>Cinecrush</title>
  <defs>
    <linearGradient id="cc-grad" x1="0" y1="0" x2="1" y2="1">
      <stop offset="0" stop-color="#FF2D55"/>
      <stop offset="1" stop-color="#FF6B6B"/>
    </linearGradient>
    <filter id="cc-shadow" x="-20%" y="-20%" width="140%" height="140%">
      <feDropShadow dx="0" dy="2" stdDeviation="6" flood-color="#000" flood-opacity="0.25"/>
    </filter>
  </defs>

  <g filter="url(#cc-shadow)">
    <!-- Heart -->
    <path fill="url(#cc-grad)" d="M128 214c-3.6 0-7.2-1.3-10.1-3.9l-67.4-59.9c-22.7-20.2-24.5-55-4.1-77.9 20.4-22.9 55.3-25 78-4.8l3.6 3.2 3.6-3.2c22.7-20.2 57.6-18.1 78 4.8 20.4 22.9 18.6 57.8-4.1 77.9l-67.4 59.9c-2.9 2.6-6.5 3.9-10.1 3.9z"/>
    <!-- Play triangle -->
    <polygon points="116,96 172,128 116,160" fill="#ffffff" opacity="0.95"/>
  </g>

  <!-- subtle sparkles to hint cinema vibe -->
  <circle cx="76" cy="92" r="6" fill="#ffffff" opacity="0.25"/>
  <circle cx="60" cy="108" r="5" fill="#ffffff" opacity="0.2"/>
  <circle cx="92" cy="76" r="4" fill="#ffffff" opacity="0.2"/>
</svg>

